<svg width="295" height="295" viewBox="0 0 295 295" fill="none" xmlns="http://www.w3.org/2000/svg">
<g clip-path="url(#clip0_180_47)">
<path d="M174.432 32.4651C167.632 22.4651 161.632 13.2651 156.032 4.86507C155.232 3.66507 154.032 2.46507 152.832 1.66507C148.032 -1.53493 141.632 0.065073 138.432 4.86507C133.232 13.2651 127.232 22.0651 120.032 32.4651C88.432 78.8651 41.232 148.865 41.232 188.865C41.232 218.065 53.232 244.465 72.432 263.665C91.632 282.465 118.032 294.465 147.232 294.465C176.432 294.465 202.832 282.465 222.032 263.265C241.232 244.065 253.232 217.665 253.232 188.465C253.232 148.465 206.032 78.8651 174.432 32.4651ZM207.632 248.865C192.032 264.465 170.832 273.665 147.232 273.665C123.632 273.665 102.432 264.065 86.832 248.865C71.232 233.265 62.032 212.065 62.032 188.465C62.032 154.865 107.232 88.0651 137.232 43.6651C140.832 38.4651 144.032 33.2651 147.232 28.8651C150.432 33.2651 153.632 38.4651 157.232 43.6651C187.232 88.4651 232.432 154.865 232.432 188.465C232.432 212.065 222.832 233.265 207.632 248.865Z" fill="black"/>
<path d="M209.232 181.265C203.632 180.865 198.832 185.265 198.432 190.865C198.032 199.665 195.232 208.065 190.832 215.265C186.432 222.465 180.032 228.865 172.432 232.865C167.632 235.665 165.632 242.065 168.432 246.865C171.632 252.465 178.032 254.065 182.832 251.265C193.632 245.265 202.432 236.465 208.432 226.465C214.832 216.465 218.432 204.465 218.832 192.065C219.232 186.465 214.832 181.665 209.232 181.265Z" fill="black"/>
<rect x="210" width="20" height="65" rx="10" fill="black"/>
<rect x="236" y="21" width="20" height="98" rx="10" fill="black"/>
</g>
<defs>
<clipPath id="clip0_180_47">
<rect width="294.465" height="294.465" fill="white"/>
</clipPath>
</defs>
</svg>
