<svg version="1.1" id="Layer_1" xmlns="http://www.w3.org/2000/svg" xmlns:xlink="http://www.w3.org/1999/xlink" x="0px" y="0px" viewBox="0 0 511 511" style="enable-background:new 0 0 511 511;" xml:space="preserve">
<g>
	<path style="fill:none;stroke:#000000;stroke-width:15;stroke-miterlimit:10;" d="M375.5,503.5h-315v-16.633&#10;&#9;&#9;c0-16.219,13.148-29.367,29.367-29.367h331.266c16.219,0,29.367,13.148,29.367,29.367V503.5h-60"/>
	<path style="fill:none;stroke:#000000;stroke-width:15;stroke-miterlimit:10;" d="M306.651,121.436&#10;&#9;&#9;c57.658,20.913,98.849,76.172,98.849,141.053V457.5"/>
	<path style="fill:none;stroke:#000000;stroke-width:15;stroke-miterlimit:10;" d="M105.5,457.5V262.489&#10;&#9;&#9;c0-65.454,41.924-121.117,100.384-141.6"/>
	<polygon style="fill:none;stroke:#000000;stroke-width:15;stroke-miterlimit:10;" points="375.5,52.5 285.5,142.617 225.5,142.617 &#10;&#9;&#9;135.5,52.5 135.5,7.5 375.5,7.5 &#9;"/>
	<line style="fill:none;stroke:#000000;stroke-width:15;stroke-miterlimit:10;" x1="210.5" y1="52.5" x2="375.5" y2="52.5"/>
	<line style="fill:none;stroke:#000000;stroke-width:15;stroke-miterlimit:10;" x1="135.5" y1="52.5" x2="195.5" y2="52.5"/>
	<rect x="225.5" y="142.617" style="fill:none;stroke:#000000;stroke-width:15;stroke-miterlimit:10;" width="60" height="75.064"/>
	<path style="fill:none;stroke:#000000;stroke-width:15;stroke-miterlimit:10;" d="M285.502,162.042&#10;&#9;&#9;c43.252,12.906,74.784,52.989,74.784,100.436c0,29.392-12.1,55.958-31.59,74.988"/>
	<path style="fill:none;stroke:#000000;stroke-width:15;stroke-miterlimit:10;" d="M151.758,247.477&#10;&#9;&#9;c5.84-40.747,35.12-73.927,73.74-85.442"/>
	<path style="fill:none;stroke:#000000;stroke-width:15;stroke-miterlimit:10;" d="M182.284,337.467&#10;&#9;&#9;c-16.121-15.74-27.186-36.635-30.531-60.021"/>
	<circle style="fill:none;stroke:#000000;stroke-width:15;stroke-miterlimit:10;" cx="255.489" cy="262.478" r="15"/>
	<path style="fill:none;stroke:#000000;stroke-width:15;stroke-miterlimit:10;" d="M165.5,277.478h-30v-30h30&#10;&#9;&#9;c8.284,0,15,6.716,15,15v0C180.5,270.762,173.784,277.478,165.5,277.478z"/>
	<path style="fill:none;stroke:#000000;stroke-width:15;stroke-miterlimit:10;" d="M285.5,457.5v-60.037h52.758&#10;&#9;&#9;c20.568,0,37.242-16.674,37.242-37.242v-22.758h-240v22.758c0,20.568,16.674,37.242,37.242,37.242H225.5V457.5"/>
	
		<line style="fill:none;stroke:#000000;stroke-width:15;stroke-miterlimit:10;" x1="285.5" y1="397.463" x2="247.947" y2="397.463"/>
	<line style="fill:none;stroke:#000000;stroke-width:15;stroke-miterlimit:10;" x1="180.5" y1="360" x2="180.5" y2="375"/>
	<line style="fill:none;stroke:#000000;stroke-width:15;stroke-miterlimit:10;" x1="210.5" y1="360" x2="210.5" y2="375"/>
</g>
<g>
</g>
<g>
</g>
<g>
</g>
<g>
</g>
<g>
</g>
<g>
</g>
<g>
</g>
<g>
</g>
<g>
</g>
<g>
</g>
<g>
</g>
<g>
</g>
<g>
</g>
<g>
</g>
<g>
</g>
</svg>