<?xml version="1.0" encoding="UTF-8" standalone="no"?>
<!-- Created with Inkscape (http://www.inkscape.org/) -->

<svg
   version="1.1"
   id="svg4854"
   xml:space="preserve"
   width="682.66669"
   height="682.66669"
   viewBox="0 0 682.66669 682.66669"
   xmlns="http://www.w3.org/2000/svg"
   xmlns:svg="http://www.w3.org/2000/svg"><defs
     id="defs4858"><clipPath
       clipPathUnits="userSpaceOnUse"
       id="clipPath4868"><path
         d="M 0,512 H 512 V 0 H 0 Z"
         id="path4866" /></clipPath></defs><g
     id="g4860"
     transform="matrix(1.3333333,0,0,-1.3333333,0,682.66667)"><g
       id="g4862"><g
         id="g4864"
         clip-path="url(#clipPath4868)"><g
           id="g4870"
           transform="translate(336,20)"><path
             d="m 0,0 c 5.52,0 10,-4.48 10,-10 0,-5.52 -4.48,-10 -10,-10 -5.52,0 -10,4.48 -10,10 0,5.52 4.48,10 10,10"
             style="fill:#000000;fill-opacity:1;fill-rule:nonzero;stroke:none"
             id="path4872" /></g><g
           id="g4874"
           transform="translate(296,20)"><path
             d="m 0,0 c 5.52,0 10,-4.48 10,-10 0,-5.52 -4.48,-10 -10,-10 -5.52,0 -10,4.48 -10,10 0,5.52 4.48,10 10,10"
             style="fill:#000000;fill-opacity:1;fill-rule:nonzero;stroke:none"
             id="path4876" /></g><g
           id="g4878"
           transform="translate(276,60)"><path
             d="m 0,0 c 5.52,0 10,-4.48 10,-10 0,-5.52 -4.48,-10 -10,-10 -5.52,0 -10,4.48 -10,10 0,5.52 4.48,10 10,10"
             style="fill:#000000;fill-opacity:1;fill-rule:nonzero;stroke:none"
             id="path4880" /></g><g
           id="g4882"
           transform="translate(256,20)"><path
             d="m 0,0 c 5.52,0 10,-4.48 10,-10 0,-5.52 -4.48,-10 -10,-10 -5.52,0 -10,4.48 -10,10 0,5.52 4.48,10 10,10"
             style="fill:#000000;fill-opacity:1;fill-rule:nonzero;stroke:none"
             id="path4884" /></g><g
           id="g4886"
           transform="translate(236,60)"><path
             d="m 0,0 c 5.52,0 10,-4.48 10,-10 0,-5.52 -4.48,-10 -10,-10 -5.52,0 -10,4.48 -10,10 0,5.52 4.48,10 10,10"
             style="fill:#000000;fill-opacity:1;fill-rule:nonzero;stroke:none"
             id="path4888" /></g><g
           id="g4890"
           transform="translate(216,20)"><path
             d="m 0,0 c 5.52,0 10,-4.48 10,-10 0,-5.52 -4.48,-10 -10,-10 -5.52,0 -10,4.48 -10,10 0,5.52 4.48,10 10,10"
             style="fill:#000000;fill-opacity:1;fill-rule:nonzero;stroke:none"
             id="path4892" /></g><g
           id="g4894"
           transform="translate(176,20)"><path
             d="m 0,0 c 5.52,0 10,-4.48 10,-10 0,-5.52 -4.48,-10 -10,-10 -5.52,0 -10,4.48 -10,10 0,5.52 4.48,10 10,10"
             style="fill:#000000;fill-opacity:1;fill-rule:nonzero;stroke:none"
             id="path4896" /></g><g
           id="g4898"
           transform="translate(227.8198,429.9004)"><path
             d="m 0,0 c -5.46,-5.46 -13.23,-8.471 -21.86,-8.471 -12.18,0 -24.83,5.67 -34.71,15.54 -8.64,8.641 -14.07,19.41 -15.28,30.29 -1.16,10.491 1.75,19.821 8.21,26.271 5.46,5.46 13.23,8.47 21.86,8.47 12.18,0 24.83,-5.661 34.71,-15.54 C 1.58,47.909 7.01,37.159 8.2,26.279 9.38,15.79 6.46,6.47 0,0 Z"
             style="fill:none;stroke:#000000;stroke-width:20;stroke-linecap:round;stroke-linejoin:round;stroke-miterlimit:10;stroke-dasharray:none;stroke-opacity:1"
             id="path4900" /></g><g
           id="g4902"
           transform="translate(164.1802,493.5303)"><path
             d="M 0,0 63.64,-63.63"
             style="fill:none;stroke:#000000;stroke-width:20;stroke-linecap:round;stroke-linejoin:round;stroke-miterlimit:10;stroke-dasharray:none;stroke-opacity:1"
             id="path4904" /></g><g
           id="g4906"
           transform="translate(264.1802,364.1797)"><path
             d="m 0,0 c -5.46,5.46 -8.46,13.221 -8.46,21.86 0,12.18 5.66,24.83 15.53,34.701 8.64,8.649 19.41,14.08 30.3,15.29 10.48,1.16 19.81,-1.75 26.26,-8.221 C 69.09,58.181 72.1,50.41 72.1,41.78 72.1,29.601 66.44,16.95 56.56,7.07 47.91,-1.58 37.16,-7.01 26.28,-8.199 15.79,-9.38 6.47,-6.46 0,0 Z"
             style="fill:none;stroke:#000000;stroke-width:20;stroke-linecap:round;stroke-linejoin:round;stroke-miterlimit:10;stroke-dasharray:none;stroke-opacity:1"
             id="path4908" /></g><g
           id="g4910"
           transform="translate(327.8101,427.8096)"><path
             d="M 0,0 -63.63,-63.63"
             style="fill:none;stroke:#000000;stroke-width:20;stroke-linecap:round;stroke-linejoin:round;stroke-miterlimit:10;stroke-dasharray:none;stroke-opacity:1"
             id="path4912" /></g><g
           id="g4914"
           transform="translate(356,196)"><path
             d="m 0,0 v 40 h -22.83 c -1.88,7.27 -4.76,14.09 -8.48,20.4 l 16.16,16.17 -28.28,28.28 -16.17,-16.16 c -6.31,3.72 -13.13,6.6 -20.4,8.48 V 120 h -40 V 97.17 c -7.27,-1.88 -14.09,-4.76 -20.4,-8.48 l -16.17,16.16 -28.28,-28.28 16.16,-16.17 c -3.72,-6.31 -6.6,-13.13 -8.48,-20.4 H -200 V 0 h 22.83 c 1.88,-7.27 4.76,-14.09 8.48,-20.4 l -16.16,-16.17 28.28,-28.28 16.17,16.16 c 6.31,-3.72 13.13,-6.6 20.4,-8.48 V -80 h 40 v 22.83 c 7.27,1.88 14.09,4.76 20.4,8.48 l 16.17,-16.16 28.28,28.28 -16.16,16.17 c 3.72,6.31 6.6,13.13 8.48,20.4 z"
             style="fill:none;stroke:#000000;stroke-width:20;stroke-linecap:round;stroke-linejoin:round;stroke-miterlimit:10;stroke-dasharray:none;stroke-opacity:1"
             id="path4916" /></g><g
           id="g4918"
           transform="translate(296,216)"><path
             d="m 0,0 c 0,-22.09 -17.91,-40 -40,-40 -22.09,0 -40,17.91 -40,40 0,22.09 17.91,40 40,40 C -17.91,40 0,22.09 0,0 Z"
             style="fill:none;stroke:#000000;stroke-width:20;stroke-linecap:round;stroke-linejoin:round;stroke-miterlimit:10;stroke-dasharray:none;stroke-opacity:1"
             id="path4920" /></g><g
           id="g4922"
           transform="translate(196,50)"><path
             d="m 0,0 v 39.47 c -47.3,22.47 -80,70.68 -80,126.53 0,42.73 19.15,81 49.33,106.68 L -100,452"
             style="fill:none;stroke:#000000;stroke-width:20;stroke-linecap:round;stroke-linejoin:round;stroke-miterlimit:10;stroke-dasharray:none;stroke-opacity:1"
             id="path4924" /></g><g
           id="g4926"
           transform="translate(374,419)"><path
             d="m 0,0 c 0,-5.522 4.477,-10 10,-10 5.523,0 10,4.478 10,10 C 20,5.522 15.523,10 10,10 4.477,10 0,5.522 0,0"
             style="fill:#000000;fill-opacity:1;fill-rule:nonzero;stroke:none"
             id="path4928" /></g><g
           id="g4930"
           transform="translate(416,502)"><path
             d="M 0,0 -15.85,-40.996"
             style="fill:none;stroke:#000000;stroke-width:20;stroke-linecap:round;stroke-linejoin:round;stroke-miterlimit:10;stroke-dasharray:none;stroke-opacity:1"
             id="path4932" /></g><g
           id="g4934"
           transform="translate(367.6934,377.0566)"><path
             d="m 0,0 -21.023,-54.377 c 30.18,-25.68 49.33,-63.949 49.33,-106.68 0,-55.849 -32.701,-104.059 -80,-126.53 v -39.47"
             style="fill:none;stroke:#000000;stroke-width:20;stroke-linecap:round;stroke-linejoin:round;stroke-miterlimit:10;stroke-dasharray:none;stroke-opacity:1"
             id="path4936" /></g></g></g></g></svg>
