<svg id="Layer_1" enable-background="new 0 0 509.58 509.58" height="512" viewBox="0 0 509.58 509.58" width="512" xmlns="http://www.w3.org/2000/svg"><path d="m431.134 128.93c.014-12.567-4.87-24.385-13.751-33.275s-20.693-13.787-33.26-13.787c-5.979 0-11.7 1.14-16.971 3.194l.048-25.603c.03-12.578-4.846-24.409-13.73-33.314-8.884-8.904-20.703-13.809-33.281-13.809h-.694c-9.426 0-18.211 2.805-25.581 7.61-1.532-2.165-3.245-4.224-5.157-6.139-8.884-8.904-20.703-13.807-33.28-13.807h-.853c-21.486 0-39.638 14.494-45.226 34.213-5.76-2.523-12.115-3.933-18.796-3.933h-.545c-25.922 0-47.011 21.089-47.011 47.011v94.881c-5.362-2.115-11.195-3.291-17.3-3.291-26.081 0-47.3 21.218-47.3 47.299v117.164c0 97.177 79.06 176.236 176.237 176.236 47.119 0 91.405-18.361 124.701-51.701s51.598-77.65 51.536-124.77l-.067-50.061zm-30.215 204.219c.052 39.098-15.135 75.865-42.763 103.53s-64.376 42.9-103.474 42.9c-80.635 0-146.236-65.602-146.236-146.236v-117.163c0-9.539 7.761-17.299 17.3-17.299s17.3 7.76 17.3 17.299v78.812c0 8.284 6.716 15 15 15 26.637 0 48.308 21.671 48.308 48.308v24.548c0 8.284 6.716 15 15 15s15-6.716 15-15v-24.548c0-38.051-27.279-69.85-63.308-76.866v-204.143c0-9.38 7.631-17.011 17.011-17.011h.545c9.379 0 17.009 7.63 17.011 17.008v138.368c0 8.284 6.716 15 15 15s15-6.716 15-15c0-22.218 0-149.967 0-168.646 0-9.38 7.631-17.011 17.011-17.011h.853c4.551 0 8.828 1.774 12.042 4.996 3.214 3.221 4.979 7.502 4.969 12.057-.1 50.178-.248 118.867-.333 168.714-.016 8.284 6.686 15.013 14.97 15.029h.03c8.271 0 14.983-6.696 15-14.971.065-33.733.242-124.228.329-156.518.022-9.358 7.653-16.972 17.011-16.972h.694c4.551 0 8.828 1.774 12.043 4.997 3.214 3.222 4.979 7.504 4.968 12.062-.096 48.776-.254 125.909-.329 174.264-.016 8.284 6.688 15.013 14.972 15.028h.029c8.271-.001 14.984-6.697 15-14.972.019-7.441.167-101.711.241-104.925.048-9.332 7.679-16.924 17.011-16.924 4.547 0 8.821 1.771 12.035 4.989 3.214 3.217 4.981 7.493 4.976 12.029l-.281 154.156z"/></svg>