<svg width="24" height="24" viewBox="0 0 24 24" fill="none" xmlns="http://www.w3.org/2000/svg">
<g clip-path="url(#clip0_175_21)">
<path d="M13.1 1C10.6817 1.01177 8.33568 1.82542 6.42942 3.31348C4.52316 4.80153 3.16438 6.87992 2.56598 9.223L1.83398 8.116C1.76468 8.0001 1.67263 7.89944 1.56337 7.82009C1.45412 7.74073 1.32992 7.68433 1.19827 7.65428C1.06663 7.62422 0.930257 7.62114 0.797387 7.64522C0.664517 7.6693 0.537901 7.72004 0.425173 7.79438C0.312445 7.86872 0.215941 7.96512 0.14148 8.07777C0.0670199 8.19042 0.0161456 8.31698 -0.00807472 8.44983C-0.032295 8.58267 -0.0293594 8.71905 0.000554904 8.85073C0.0304692 8.9824 0.0867426 9.10666 0.165982 9.216L2.36598 12.55C2.5188 12.7638 2.74411 12.9149 2.99998 12.975C3.26125 13.0268 3.53243 12.9748 3.75598 12.83L7.05598 10.607C7.16976 10.5359 7.26808 10.4427 7.34509 10.3329C7.4221 10.2231 7.47623 10.0989 7.50425 9.96767C7.53226 9.83648 7.5336 9.701 7.50818 9.56929C7.48276 9.43758 7.43109 9.31233 7.35627 9.20099C7.28144 9.08966 7.18498 8.99451 7.07262 8.92123C6.96027 8.84794 6.83432 8.79801 6.70227 8.77441C6.57022 8.7508 6.43477 8.75401 6.30398 8.78383C6.17319 8.81365 6.04975 8.86948 5.94098 8.948L4.43998 9.96C4.83946 8.33839 5.68671 6.86172 6.88507 5.69847C8.08342 4.53521 9.58462 3.73222 11.2174 3.38111C12.8502 3.03 14.5487 3.14491 16.1193 3.71272C17.6899 4.28054 19.0693 5.27839 20.1001 6.59244C21.1308 7.90649 21.7715 9.48382 21.9489 11.1445C22.1264 12.8051 21.8335 14.4822 21.1036 15.9843C20.3738 17.4865 19.2364 18.7533 17.8212 19.6401C16.406 20.527 14.7701 20.9982 13.1 21C11.6683 20.9961 10.2588 20.6466 8.99113 19.9812C7.7235 19.3158 6.63528 18.3542 5.81898 17.178C5.74587 17.0657 5.65095 16.9693 5.53986 16.8944C5.42876 16.8196 5.30376 16.7678 5.17226 16.7422C5.04077 16.7166 4.90547 16.7176 4.77439 16.7453C4.64331 16.773 4.51914 16.8267 4.40923 16.9033C4.29932 16.9799 4.20593 17.0778 4.13459 17.1912C4.06325 17.3046 4.01542 17.4312 3.99395 17.5634C3.97247 17.6956 3.97778 17.8308 4.00957 17.961C4.04135 18.0911 4.09897 18.2136 4.17898 18.321C5.50605 20.2342 7.41182 21.6712 9.61619 22.4209C11.8206 23.1706 14.2073 23.1934 16.4256 22.4859C18.6439 21.7785 20.5768 20.3782 21.9402 18.4907C23.3035 16.6033 24.0255 14.3282 24 12C24.0098 9.09691 22.8678 6.30844 20.8244 4.24629C18.781 2.18413 16.003 1.01667 13.1 1Z" fill="black"/>
<path d="M13 5.95001C12.7348 5.95001 12.4804 6.05537 12.2929 6.24291C12.1054 6.43044 12 6.6848 12 6.95001V12C12.0043 12.2644 12.109 12.5172 12.293 12.707L15.293 15.734C15.4813 15.9193 15.7344 16.0237 15.9986 16.025C16.2627 16.0263 16.5169 15.9244 16.707 15.741C16.8953 15.5543 17.0017 15.3004 17.0028 15.0353C17.0039 14.7701 16.8997 14.5153 16.713 14.327L14 11.589V6.95001C14 6.6848 13.8946 6.43044 13.7071 6.24291C13.5196 6.05537 13.2652 5.95001 13 5.95001Z" fill="black"/>
</g>
<defs>
<clipPath id="clip0_175_21">
<rect width="24" height="24" fill="white"/>
</clipPath>
</defs>
</svg>
