<svg width="23" height="20" viewBox="0 0 23 20" fill="none" xmlns="http://www.w3.org/2000/svg">
<path d="M4.78584 8.61709C5.44092 4.85789 8.72009 2 12.6667 2C17.085 2 20.6667 5.58172 20.6667 10C20.6667 14.4183 17.085 18 12.6667 18C9.77706 18 7.24416 16.4685 5.8369 14.1682C5.54869 13.6971 4.93313 13.5488 4.46201 13.837C3.9909 14.1252 3.84262 14.7408 4.13083 15.2119C5.88632 18.0815 9.05204 20 12.6667 20C18.1896 20 22.6667 15.5228 22.6667 10C22.6667 4.47715 18.1896 0 12.6667 0C7.63946 0 3.47863 3.70974 2.77241 8.54106L2.52425 8.29289C2.13372 7.90237 1.50056 7.90237 1.11003 8.29289C0.719508 8.68342 0.719508 9.31658 1.11003 9.70711L3.11003 11.7071C3.50056 12.0976 4.13372 12.0976 4.52425 11.7071L6.52425 9.70711C6.91477 9.31658 6.91477 8.68342 6.52425 8.29289C6.13372 7.90237 5.50056 7.90237 5.11003 8.29289L4.78584 8.61709Z" fill="#E4DDD7"/>
<path d="M11.6667 4.5C12.219 4.5 12.6667 4.94772 12.6667 5.5V10H15.6667C16.219 10 16.6667 10.4477 16.6667 11C16.6667 11.5523 16.219 12 15.6667 12H12.1667C11.3383 12 10.6667 11.3284 10.6667 10.5V5.5C10.6667 4.94772 11.1145 4.5 11.6667 4.5Z" fill="#E4DDD7"/>
</svg>
