<svg id="Capa_1" enable-background="new 0 0 507.974 507.974" height="512" viewBox="0 0 507.974 507.974" width="512" xmlns="http://www.w3.org/2000/svg"><g><g><path d="m500.365 364.615-114.704-8.193c-.195-.01-.389-.02-.584-.02h-66.231l179.46-257.5c2.585-3.714 1.67-8.82-2.044-11.405-1.372-.955-3.003-1.467-4.674-1.468h-475.202c-4.525.004-8.19 3.675-8.187 8.199.001 1.671.514 3.302 1.468 4.674l179.46 257.5h-66.231c-.195 0-.389.01-.584.02l-114.703 8.193c-4.287.306-7.609 3.874-7.609 8.172v16.386c0 4.525 3.668 8.193 8.193 8.193h188.442v16.386c0 4.525 3.668 8.193 8.193 8.193h98.318c4.525 0 8.193-3.668 8.193-8.193v-16.386h188.442c4.525 0 8.193-3.668 8.193-8.193v-16.386c0-4.298-3.322-7.866-7.609-8.172zm-468.279-262.201h248.744l-25.767 45.093c-2.245 3.931-.879 8.938 3.052 11.184 3.931 2.245 8.938.879 11.184-3.052l30.407-53.225h176.183l-177.024 253.987h-54.331l114.632-175.773c2.526-3.754 1.53-8.845-2.224-11.371s-8.845-1.53-11.371 2.224c-.044.065-.086.13-.128.196l-120.47 184.724h-15.864zm262.867 303.146h-81.931v-8.193h81.931zm196.635-24.58h-475.202v-.563l106.808-7.63h261.586l106.808 7.63z"/><path d="m233.472 201.811c-3.929-2.245-8.934-.88-11.178 3.049l-32.773 57.352c-2.252 3.925-.895 8.932 3.03 11.184s8.932.895 11.184-3.03c.005-.008.009-.016.014-.024l32.773-57.352c2.244-3.929.879-8.934-3.05-11.179z"/></g></g></svg>