<svg height="512" viewBox="0 0 64 64" width="512" xmlns="http://www.w3.org/2000/svg"><g id="Dripper-Coffee_Filter-Coffee-Filter-Hot_Drink" data-name="Dripper-Coffee Filter-Coffee-Filter-Hot Drink"><path d="m51.19 11h-48.19a1 1 0 0 0 -.89 1.45l15.27 30.55h-10.38a5 5 0 0 0 -5 5 1 1 0 0 0 1 1h17v3a1 1 0 0 0 1 1h12a1 1 0 0 0 1-1v-3h17a1 1 0 0 0 1-1 5 5 0 0 0 -5-5h-10.38l4.15-8.31 12.35-2.25a10.807 10.807 0 0 0 -1.93-21.44zm-19.19 40h-10v-2h10zm15-6a3.014 3.014 0 0 1 2.83 2h-45.66a3.014 3.014 0 0 1 2.83-2zm-12.62-2h-14.76l-15-30h44.76zm16.81-25a3.816 3.816 0 0 1 .68 7.57l-7.19 1.3 4.44-8.87zm6.76 9.46a8.83 8.83 0 0 1 -5.19 3.02l-10.87 1.98 1.68-3.35 8.66-1.58a5.812 5.812 0 0 0 -1.04-11.53h-1.07l1.49-2.98a8.8 8.8 0 0 1 6.34 14.44z"/></g></svg>