<?xml version="1.0" encoding="UTF-8"?>
<svg xmlns="http://www.w3.org/2000/svg" id="Line_Expand" data-name="Line Expand" viewBox="0 0 64 64" width="512" height="512"><path d="M57.529,28.214,51.75,11.7V5A4.756,4.756,0,0,0,47,.25H17A4.756,4.756,0,0,0,12.25,5v6.7L6.471,28.213A21.7,21.7,0,0,0,5.25,35.4V58A5.757,5.757,0,0,0,11,63.75H53A5.757,5.757,0,0,0,58.75,58V35.4A21.693,21.693,0,0,0,57.529,28.214ZM15.75,5A1.252,1.252,0,0,1,17,3.75H47A1.252,1.252,0,0,1,48.25,5v5.25H15.75ZM41.709,60.25H11A2.252,2.252,0,0,1,8.75,58V35.4A18.2,18.2,0,0,1,9.775,29.37l5.467-15.62H47.533L42.471,28.214A21.693,21.693,0,0,0,41.25,35.4V58A5.723,5.723,0,0,0,41.709,60.25ZM55.25,58A2.252,2.252,0,0,1,53,60.25H47A2.252,2.252,0,0,1,44.75,58V35.4a18.187,18.187,0,0,1,1.025-6.028h0L50,17.3l4.225,12.074A18.187,18.187,0,0,1,55.25,35.4Z"/><path d="M15.277,31.277C11.086,35.469,12.038,43.24,17.4,48.6s13.133,6.313,17.325,2.122S37.962,38.76,32.6,33.4,19.469,27.086,15.277,31.277Zm4.6,14.85C16.2,42.452,15.1,37.465,17.145,34.488a9.036,9.036,0,0,1,6.139,6.855,12.525,12.525,0,0,0,6.029,8.409C26.423,50.3,22.746,49,19.873,46.127Zm12.982,1.385a9.033,9.033,0,0,1-6.139-6.855,12.526,12.526,0,0,0-6.03-8.409c2.89-.547,6.567.752,9.44,3.625C33.8,39.548,34.9,44.535,32.855,47.512Z"/></svg>
