<svg width="24" height="24" viewBox="0 0 24 24" fill="none" xmlns="http://www.w3.org/2000/svg">
<g clip-path="url(#clip0_175_2)">
<path d="M22.1628 1.8439C22.1567 1.83781 22.1504 1.83204 22.1443 1.82595C22.1437 1.82534 22.1431 1.82473 22.1424 1.82412C19.0461 -1.24339 13.379 -0.318495 9.34063 3.71993C8.73795 4.32261 8.19411 4.97234 7.71781 5.65541C5.30703 5.29803 3.18513 5.89836 1.72778 7.35575C1.72207 7.36147 1.71667 7.36743 1.711 7.37319C1.70988 7.37436 1.70871 7.37549 1.70763 7.37671C-1.21283 10.3301 -0.286486 16.2783 3.71632 20.2811C7.76933 24.3341 13.7253 25.1859 16.6416 22.2696C16.6452 22.2661 16.6486 22.2623 16.6522 22.2587C16.654 22.2567 16.656 22.2549 16.6578 22.2529C18.1032 20.7961 18.698 18.6812 18.342 16.2796C19.025 15.8033 19.6748 15.2595 20.2775 14.6567C24.3369 10.5973 25.2453 4.92636 22.1628 1.8439ZM10.3349 4.7142C13.4619 1.58716 17.5774 0.597491 20.1985 2.09787L20.1668 2.1087C18.606 2.64007 17.2243 3.55742 16.1712 4.76169C15.1698 5.90666 14.465 7.31263 14.1227 8.84005C12.6406 7.49839 10.9469 6.51847 9.212 5.99267C9.55447 5.54684 9.92999 5.11906 10.3349 4.7142ZM4.71054 19.2868C1.7628 16.3391 0.594485 12.0502 1.99361 9.35484C3.07394 12.5248 5.78548 14.8983 9.07072 15.5494C11.9003 16.1102 14.2176 18.1609 15.1182 20.9014L15.3333 21.5561C12.8495 23.5488 8.02025 22.5966 4.71054 19.2868ZM16.3921 20.2846C15.2927 17.1523 12.609 14.8172 9.344 14.1701C6.54879 13.6161 4.24193 11.5962 3.32355 8.89869L3.03902 8.06291C5.62025 5.94013 10.2983 6.97803 13.6588 10.3385C15.2853 11.9651 16.5511 14.075 16.9277 16.3343C17.1796 17.846 16.9894 19.2076 16.3921 20.2846ZM18.0046 14.7854C17.4964 13.1084 16.5637 11.4701 15.2903 10.024C15.352 9.80052 15.4066 9.57445 15.4516 9.34776C16.0119 6.52058 17.8957 4.36719 20.6199 3.43976L21.4564 3.155C23.5723 5.70983 22.6706 10.275 19.2831 13.6626C18.8783 14.0673 18.4504 14.4429 18.0046 14.7854Z" fill="black"/>
</g>
<defs>
<clipPath id="clip0_175_2">
<rect width="24" height="24" fill="white"/>
</clipPath>
</defs>
</svg>
