<svg width="20" height="22" viewBox="0 0 20 22" fill="none" xmlns="http://www.w3.org/2000/svg">
<path fill-rule="evenodd" clip-rule="evenodd" d="M16.8861 16.6669C16.9599 16.4583 17 16.2339 17 16V12.3998C18.7811 11.4895 20 9.6381 20 7.5C20 4.46243 17.5376 2 14.5 2C14.337 2 14.1754 2.00714 14.0157 2.02115C13.105 0.794795 11.6464 0 10 0C8.35362 0 6.89505 0.794795 5.98434 2.02115C5.82459 2.00714 5.66303 2 5.5 2C2.46243 2 0 4.46243 0 7.5C0 9.6381 1.2189 11.4895 3 12.3998V16C3 16.2339 3.04014 16.4583 3.1139 16.6669C2.43442 17.2169 2 18.0577 2 19C2 20.6569 3.34315 22 5 22H15C16.6569 22 18 20.6569 18 19C18 18.0577 17.5656 17.2169 16.8861 16.6669ZM5 10.9646V16H15V10.9646C16.6961 10.7219 18 9.26324 18 7.5C18 5.61568 16.5109 4.07915 14.6453 4.00296C14.5971 4.00099 14.5487 4 14.5 4C13.9369 4 13.4049 4.13298 12.9336 4.36924C12.8253 3.86344 12.5896 3.40491 12.2617 3.02892C11.7117 2.39841 10.9024 2 10 2C9.09762 2 8.2883 2.39841 7.73834 3.02892C7.41038 3.40492 7.17465 3.86344 7.06642 4.36924C6.59513 4.13298 6.0631 4 5.5 4C5.45132 4 5.40288 4.00099 5.35469 4.00296C3.48908 4.07915 2 5.61568 2 7.5C2 9.26324 3.30385 10.7219 5 10.9646ZM5 18C4.44772 18 4 18.4477 4 19C4 19.5523 4.44772 20 5 20H15C15.5523 20 16 19.5523 16 19C16 18.4477 15.5523 18 15 18H5Z" fill="#E4DDD7"/>
</svg>
