<svg id="Capa_1" enable-background="new 0 0 507.974 507.974" height="512" viewBox="0 0 507.974 507.974" width="512" xmlns="http://www.w3.org/2000/svg"><g><g><path d="m500.365 364.615-103.571-7.394 102.413-259.999c1.657-4.211-.413-8.967-4.623-10.625-.954-.376-1.971-.569-2.996-.569h-475.202c-4.525.002-8.191 3.672-8.189 8.197.001 1.026.194 2.042.569 2.997l102.415 259.998-103.572 7.395c-4.287.306-7.609 3.874-7.609 8.172v16.386c0 4.525 3.668 8.193 8.193 8.193h122.897v16.386c0 4.525 3.668 8.193 8.193 8.193h229.408c4.525 0 8.193-3.668 8.193-8.193v-16.386h122.897c4.525 0 8.193-3.668 8.193-8.193v-16.386c0-4.298-3.322-7.866-7.609-8.172zm-471.945-262.201h451.134l-100.059 253.987h-251.016zm332.078 303.146h-213.022v-8.193h213.021v8.193zm131.09-24.58h-475.202v-.563l106.808-7.63h261.586l106.808 7.63z"/><path d="m253.987 348.208c4.525 0 8.193-3.668 8.193-8.193v-221.215c0-4.525-3.668-8.193-8.193-8.193s-8.193 3.668-8.193 8.193v221.214c0 4.526 3.668 8.194 8.193 8.194z"/><path d="m221.214 348.208c4.525 0 8.193-3.668 8.193-8.193v-221.215c0-4.525-3.668-8.193-8.193-8.193s-8.193 3.668-8.193 8.193v221.214c0 4.526 3.669 8.194 8.193 8.194z"/><path d="m188.442 348.208c4.525 0 8.193-3.668 8.193-8.193v-221.215c0-4.525-3.668-8.193-8.193-8.193s-8.193 3.668-8.193 8.193v221.214c0 4.526 3.668 8.194 8.193 8.194z"/><path d="m155.669 348.208c4.525 0 8.193-3.668 8.193-8.193v-221.215c0-4.525-3.668-8.193-8.193-8.193s-8.193 3.668-8.193 8.193v221.214c0 4.526 3.669 8.194 8.193 8.194z"/><path d="m352.305 348.208c4.525 0 8.193-3.668 8.193-8.193v-221.215c0-4.525-3.668-8.193-8.193-8.193s-8.193 3.668-8.193 8.193v221.214c-.001 4.526 3.668 8.194 8.193 8.194z"/><path d="m319.532 348.208c4.525 0 8.193-3.668 8.193-8.193v-221.215c0-4.525-3.668-8.193-8.193-8.193s-8.193 3.668-8.193 8.193v221.214c0 4.526 3.668 8.194 8.193 8.194z"/><path d="m286.76 348.208c4.525 0 8.193-3.668 8.193-8.193v-221.215c0-4.525-3.668-8.193-8.193-8.193s-8.193 3.668-8.193 8.193v221.214c-.001 4.526 3.668 8.194 8.193 8.194z"/></g></g></svg>